<?xml version="1.0" encoding="utf-8" standalone="no"?>
<!DOCTYPE svg PUBLIC "-//W3C//DTD SVG 1.1//EN"
  "http://www.w3.org/Graphics/SVG/1.1/DTD/svg11.dtd">
<svg xmlns:xlink="http://www.w3.org/1999/xlink" width="746.59087pt" height="325.228937pt" viewBox="0 0 746.59087 325.228937" xmlns="http://www.w3.org/2000/svg" version="1.1">
 <metadata>
  <rdf:RDF xmlns:dc="http://purl.org/dc/elements/1.1/" xmlns:cc="http://creativecommons.org/ns#" xmlns:rdf="http://www.w3.org/1999/02/22-rdf-syntax-ns#">
   <cc:Work>
    <dc:type rdf:resource="http://purl.org/dc/dcmitype/StillImage"/>
    <dc:date>2026-07-09T16:19:32.093880</dc:date>
    <dc:format>image/svg+xml</dc:format>
    <dc:creator>
     <cc:Agent>
      <dc:title>Matplotlib v3.11.0, https://matplotlib.org/</dc:title>
     </cc:Agent>
    </dc:creator>
   </cc:Work>
  </rdf:RDF>
 </metadata>
 <defs>
  <style type="text/css">*{stroke-linejoin: round; stroke-linecap: butt}</style>
 </defs>
 <g id="figure_1">
  <g id="patch_1">
   <path d="M 0 325.228937 
L 746.59087 325.228937 
L 746.59087 0 
L 0 0 
z
" style="fill: #ffffff"/>
  </g>
  <g id="axes_1">
   <g id="patch_2">
    <path d="M 58.966953 292.968 
L 672.766953 292.968 
L 672.766953 7.2 
L 58.966953 7.2 
z
" style="fill: #ffffff"/>
   </g>
   <g id="matplotlib.axis_1">
    <g id="xtick_1">
     <g id="line2d_1">
      <defs>
       <path id="me45cdeed4b" d="M 0 0 
L 0 3.5 
" style="stroke: #1a1a1a; stroke-width: 0.8"/>
      </defs>
      <g>
       <use xlink:href="#me45cdeed4b" x="95.335756" y="292.968" style="fill: #1a1a1a; stroke: #1a1a1a; stroke-width: 0.8"/>
      </g>
     </g>
     <g id="text_1">
      <!-- B0H0 -->
      <g style="fill: #1a1a1a" transform="translate(97.283998 318.028937) rotate(-90) scale(0.075 -0.075)">
       <defs>
        <path id="DejaVuSansMono-25" d="M 1153 2228 
L 1153 519 
L 1900 519 
Q 2450 519 2684 711 
Q 2919 903 2919 1344 
Q 2919 1800 2672 2014 
Q 2425 2228 1900 2228 
L 1153 2228 
z
M 1153 4147 
L 1153 2741 
L 1888 2741 
Q 2344 2741 2548 2916 
Q 2753 3091 2753 3481 
Q 2753 3834 2551 3990 
Q 2350 4147 1888 4147 
L 1153 4147 
z
M 519 4666 
L 1900 4666 
Q 2616 4666 3003 4356 
Q 3391 4047 3391 3481 
Q 3391 3053 3186 2806 
Q 2981 2559 2572 2497 
Q 3031 2428 3292 2104 
Q 3553 1781 3553 1281 
Q 3553 647 3137 323 
Q 2722 0 1900 0 
L 519 0 
L 519 4666 
z
" transform="scale(0.015625)"/>
        <path id="DejaVuSansMono-13" d="M 1509 2344 
Q 1509 2516 1629 2641 
Q 1750 2766 1919 2766 
Q 2094 2766 2219 2641 
Q 2344 2516 2344 2344 
Q 2344 2169 2220 2047 
Q 2097 1925 1919 1925 
Q 1744 1925 1626 2044 
Q 1509 2163 1509 2344 
z
M 1925 4250 
Q 1484 4250 1267 3775 
Q 1050 3300 1050 2328 
Q 1050 1359 1267 884 
Q 1484 409 1925 409 
Q 2369 409 2586 884 
Q 2803 1359 2803 2328 
Q 2803 3300 2586 3775 
Q 2369 4250 1925 4250 
z
M 1925 4750 
Q 2672 4750 3055 4137 
Q 3438 3525 3438 2328 
Q 3438 1134 3055 521 
Q 2672 -91 1925 -91 
Q 1178 -91 797 521 
Q 416 1134 416 2328 
Q 416 3525 797 4137 
Q 1178 4750 1925 4750 
z
" transform="scale(0.015625)"/>
        <path id="DejaVuSansMono-2b" d="M 428 4666 
L 1063 4666 
L 1063 2753 
L 2791 2753 
L 2791 4666 
L 3425 4666 
L 3425 0 
L 2791 0 
L 2791 2222 
L 1063 2222 
L 1063 0 
L 428 0 
L 428 4666 
z
" transform="scale(0.015625)"/>
       </defs>
       <use xlink:href="#DejaVuSansMono-25"/>
       <use xlink:href="#DejaVuSansMono-13" transform="translate(60.203125 0)"/>
       <use xlink:href="#DejaVuSansMono-2b" transform="translate(120.40625 0)"/>
       <use xlink:href="#DejaVuSansMono-13" transform="translate(180.609375 0)"/>
      </g>
     </g>
    </g>
    <g id="xtick_2">
     <g id="line2d_2">
      <g>
       <use xlink:href="#me45cdeed4b" x="118.860208" y="292.968" style="fill: #1a1a1a; stroke: #1a1a1a; stroke-width: 0.8"/>
      </g>
     </g>
     <g id="text_2">
      <!-- B0H1 -->
      <g style="fill: #1a1a1a" transform="translate(120.80845 318.028937) rotate(-90) scale(0.075 -0.075)">
       <defs>
        <path id="DejaVuSansMono-14" d="M 844 531 
L 1825 531 
L 1825 4097 
L 769 3859 
L 769 4434 
L 1819 4666 
L 2450 4666 
L 2450 531 
L 3419 531 
L 3419 0 
L 844 0 
L 844 531 
z
" transform="scale(0.015625)"/>
       </defs>
       <use xlink:href="#DejaVuSansMono-25"/>
       <use xlink:href="#DejaVuSansMono-13" transform="translate(60.203125 0)"/>
       <use xlink:href="#DejaVuSansMono-2b" transform="translate(120.40625 0)"/>
       <use xlink:href="#DejaVuSansMono-14" transform="translate(180.609375 0)"/>
      </g>
     </g>
    </g>
    <g id="xtick_3">
     <g id="line2d_3">
      <g>
       <use xlink:href="#me45cdeed4b" x="142.38466" y="292.968" style="fill: #1a1a1a; stroke: #1a1a1a; stroke-width: 0.8"/>
      </g>
     </g>
     <g id="text_3">
      <!-- B0H2 -->
      <g style="fill: #1a1a1a" transform="translate(144.332902 318.028937) rotate(-90) scale(0.075 -0.075)">
       <defs>
        <path id="DejaVuSansMono-15" d="M 1166 531 
L 3309 531 
L 3309 0 
L 475 0 
L 475 531 
Q 1059 1147 1496 1619 
Q 1934 2091 2100 2284 
Q 2413 2666 2522 2902 
Q 2631 3138 2631 3384 
Q 2631 3775 2401 3997 
Q 2172 4219 1772 4219 
Q 1488 4219 1175 4116 
Q 863 4013 513 3803 
L 513 4441 
Q 834 4594 1145 4672 
Q 1456 4750 1759 4750 
Q 2444 4750 2861 4386 
Q 3278 4022 3278 3431 
Q 3278 3131 3139 2831 
Q 3000 2531 2688 2169 
Q 2513 1966 2180 1606 
Q 1847 1247 1166 531 
z
" transform="scale(0.015625)"/>
       </defs>
       <use xlink:href="#DejaVuSansMono-25"/>
       <use xlink:href="#DejaVuSansMono-13" transform="translate(60.203125 0)"/>
       <use xlink:href="#DejaVuSansMono-2b" transform="translate(120.40625 0)"/>
       <use xlink:href="#DejaVuSansMono-15" transform="translate(180.609375 0)"/>
      </g>
     </g>
    </g>
    <g id="xtick_4">
     <g id="line2d_4">
      <g>
       <use xlink:href="#me45cdeed4b" x="165.909112" y="292.968" style="fill: #1a1a1a; stroke: #1a1a1a; stroke-width: 0.8"/>
      </g>
     </g>
     <g id="text_4">
      <!-- B0H3 -->
      <g style="fill: #1a1a1a" transform="translate(167.857354 318.028937) rotate(-90) scale(0.075 -0.075)">
       <defs>
        <path id="DejaVuSansMono-16" d="M 2425 2497 
Q 2884 2375 3128 2064 
Q 3372 1753 3372 1288 
Q 3372 644 2939 276 
Q 2506 -91 1741 -91 
Q 1419 -91 1084 -31 
Q 750 28 428 141 
L 428 769 
Q 747 603 1056 522 
Q 1366 441 1672 441 
Q 2191 441 2469 675 
Q 2747 909 2747 1350 
Q 2747 1756 2469 1995 
Q 2191 2234 1716 2234 
L 1234 2234 
L 1234 2753 
L 1716 2753 
Q 2150 2753 2394 2943 
Q 2638 3134 2638 3475 
Q 2638 3834 2411 4026 
Q 2184 4219 1766 4219 
Q 1488 4219 1191 4156 
Q 894 4094 569 3969 
L 569 4550 
Q 947 4650 1242 4700 
Q 1538 4750 1766 4750 
Q 2447 4750 2855 4408 
Q 3263 4066 3263 3500 
Q 3263 3116 3048 2859 
Q 2834 2603 2425 2497 
z
" transform="scale(0.015625)"/>
       </defs>
       <use xlink:href="#DejaVuSansMono-25"/>
       <use xlink:href="#DejaVuSansMono-13" transform="translate(60.203125 0)"/>
       <use xlink:href="#DejaVuSansMono-2b" transform="translate(120.40625 0)"/>
       <use xlink:href="#DejaVuSansMono-16" transform="translate(180.609375 0)"/>
      </g>
     </g>
    </g>
    <g id="xtick_5">
     <g id="line2d_5">
      <g>
       <use xlink:href="#me45cdeed4b" x="189.433564" y="292.968" style="fill: #1a1a1a; stroke: #1a1a1a; stroke-width: 0.8"/>
      </g>
     </g>
     <g id="text_5">
      <!-- B1H0 -->
      <g style="fill: #1a1a1a" transform="translate(191.381806 318.028937) rotate(-90) scale(0.075 -0.075)">
       <use xlink:href="#DejaVuSansMono-25"/>
       <use xlink:href="#DejaVuSansMono-14" transform="translate(60.203125 0)"/>
       <use xlink:href="#DejaVuSansMono-2b" transform="translate(120.40625 0)"/>
       <use xlink:href="#DejaVuSansMono-13" transform="translate(180.609375 0)"/>
      </g>
     </g>
    </g>
    <g id="xtick_6">
     <g id="line2d_6">
      <g>
       <use xlink:href="#me45cdeed4b" x="212.958016" y="292.968" style="fill: #1a1a1a; stroke: #1a1a1a; stroke-width: 0.8"/>
      </g>
     </g>
     <g id="text_6">
      <!-- B1H1 -->
      <g style="fill: #1a1a1a" transform="translate(214.906258 318.028937) rotate(-90) scale(0.075 -0.075)">
       <use xlink:href="#DejaVuSansMono-25"/>
       <use xlink:href="#DejaVuSansMono-14" transform="translate(60.203125 0)"/>
       <use xlink:href="#DejaVuSansMono-2b" transform="translate(120.40625 0)"/>
       <use xlink:href="#DejaVuSansMono-14" transform="translate(180.609375 0)"/>
      </g>
     </g>
    </g>
    <g id="xtick_7">
     <g id="line2d_7">
      <g>
       <use xlink:href="#me45cdeed4b" x="236.482467" y="292.968" style="fill: #1a1a1a; stroke: #1a1a1a; stroke-width: 0.8"/>
      </g>
     </g>
     <g id="text_7">
      <!-- B1H2 -->
      <g style="fill: #1a1a1a" transform="translate(238.43071 318.028937) rotate(-90) scale(0.075 -0.075)">
       <use xlink:href="#DejaVuSansMono-25"/>
       <use xlink:href="#DejaVuSansMono-14" transform="translate(60.203125 0)"/>
       <use xlink:href="#DejaVuSansMono-2b" transform="translate(120.40625 0)"/>
       <use xlink:href="#DejaVuSansMono-15" transform="translate(180.609375 0)"/>
      </g>
     </g>
    </g>
    <g id="xtick_8">
     <g id="line2d_8">
      <g>
       <use xlink:href="#me45cdeed4b" x="260.006919" y="292.968" style="fill: #1a1a1a; stroke: #1a1a1a; stroke-width: 0.8"/>
      </g>
     </g>
     <g id="text_8">
      <!-- B1H3 -->
      <g style="fill: #1a1a1a" transform="translate(261.955162 318.028937) rotate(-90) scale(0.075 -0.075)">
       <use xlink:href="#DejaVuSansMono-25"/>
       <use xlink:href="#DejaVuSansMono-14" transform="translate(60.203125 0)"/>
       <use xlink:href="#DejaVuSansMono-2b" transform="translate(120.40625 0)"/>
       <use xlink:href="#DejaVuSansMono-16" transform="translate(180.609375 0)"/>
      </g>
     </g>
    </g>
    <g id="xtick_9">
     <g id="line2d_9">
      <g>
       <use xlink:href="#me45cdeed4b" x="283.531371" y="292.968" style="fill: #1a1a1a; stroke: #1a1a1a; stroke-width: 0.8"/>
      </g>
     </g>
     <g id="text_9">
      <!-- B2H0 -->
      <g style="fill: #1a1a1a" transform="translate(285.479614 318.028937) rotate(-90) scale(0.075 -0.075)">
       <use xlink:href="#DejaVuSansMono-25"/>
       <use xlink:href="#DejaVuSansMono-15" transform="translate(60.203125 0)"/>
       <use xlink:href="#DejaVuSansMono-2b" transform="translate(120.40625 0)"/>
       <use xlink:href="#DejaVuSansMono-13" transform="translate(180.609375 0)"/>
      </g>
     </g>
    </g>
    <g id="xtick_10">
     <g id="line2d_10">
      <g>
       <use xlink:href="#me45cdeed4b" x="307.055823" y="292.968" style="fill: #1a1a1a; stroke: #1a1a1a; stroke-width: 0.8"/>
      </g>
     </g>
     <g id="text_10">
      <!-- B2H1 -->
      <g style="fill: #1a1a1a" transform="translate(309.004065 318.028937) rotate(-90) scale(0.075 -0.075)">
       <use xlink:href="#DejaVuSansMono-25"/>
       <use xlink:href="#DejaVuSansMono-15" transform="translate(60.203125 0)"/>
       <use xlink:href="#DejaVuSansMono-2b" transform="translate(120.40625 0)"/>
       <use xlink:href="#DejaVuSansMono-14" transform="translate(180.609375 0)"/>
      </g>
     </g>
    </g>
    <g id="xtick_11">
     <g id="line2d_11">
      <g>
       <use xlink:href="#me45cdeed4b" x="330.580275" y="292.968" style="fill: #1a1a1a; stroke: #1a1a1a; stroke-width: 0.8"/>
      </g>
     </g>
     <g id="text_11">
      <!-- B2H2 -->
      <g style="fill: #1a1a1a" transform="translate(332.528517 318.028937) rotate(-90) scale(0.075 -0.075)">
       <use xlink:href="#DejaVuSansMono-25"/>
       <use xlink:href="#DejaVuSansMono-15" transform="translate(60.203125 0)"/>
       <use xlink:href="#DejaVuSansMono-2b" transform="translate(120.40625 0)"/>
       <use xlink:href="#DejaVuSansMono-15" transform="translate(180.609375 0)"/>
      </g>
     </g>
    </g>
    <g id="xtick_12">
     <g id="line2d_12">
      <g>
       <use xlink:href="#me45cdeed4b" x="354.104727" y="292.968" style="fill: #1a1a1a; stroke: #1a1a1a; stroke-width: 0.8"/>
      </g>
     </g>
     <g id="text_12">
      <!-- B2H3 -->
      <g style="fill: #1a1a1a" transform="translate(356.052969 318.028937) rotate(-90) scale(0.075 -0.075)">
       <use xlink:href="#DejaVuSansMono-25"/>
       <use xlink:href="#DejaVuSansMono-15" transform="translate(60.203125 0)"/>
       <use xlink:href="#DejaVuSansMono-2b" transform="translate(120.40625 0)"/>
       <use xlink:href="#DejaVuSansMono-16" transform="translate(180.609375 0)"/>
      </g>
     </g>
    </g>
    <g id="xtick_13">
     <g id="line2d_13">
      <g>
       <use xlink:href="#me45cdeed4b" x="377.629179" y="292.968" style="fill: #1a1a1a; stroke: #1a1a1a; stroke-width: 0.8"/>
      </g>
     </g>
     <g id="text_13">
      <!-- B3H0 -->
      <g style="fill: #1a1a1a" transform="translate(379.577421 318.028937) rotate(-90) scale(0.075 -0.075)">
       <use xlink:href="#DejaVuSansMono-25"/>
       <use xlink:href="#DejaVuSansMono-16" transform="translate(60.203125 0)"/>
       <use xlink:href="#DejaVuSansMono-2b" transform="translate(120.40625 0)"/>
       <use xlink:href="#DejaVuSansMono-13" transform="translate(180.609375 0)"/>
      </g>
     </g>
    </g>
    <g id="xtick_14">
     <g id="line2d_14">
      <g>
       <use xlink:href="#me45cdeed4b" x="401.153631" y="292.968" style="fill: #1a1a1a; stroke: #1a1a1a; stroke-width: 0.8"/>
      </g>
     </g>
     <g id="text_14">
      <!-- B3H1 -->
      <g style="fill: #1a1a1a" transform="translate(403.101873 318.028937) rotate(-90) scale(0.075 -0.075)">
       <use xlink:href="#DejaVuSansMono-25"/>
       <use xlink:href="#DejaVuSansMono-16" transform="translate(60.203125 0)"/>
       <use xlink:href="#DejaVuSansMono-2b" transform="translate(120.40625 0)"/>
       <use xlink:href="#DejaVuSansMono-14" transform="translate(180.609375 0)"/>
      </g>
     </g>
    </g>
    <g id="xtick_15">
     <g id="line2d_15">
      <g>
       <use xlink:href="#me45cdeed4b" x="424.678083" y="292.968" style="fill: #1a1a1a; stroke: #1a1a1a; stroke-width: 0.8"/>
      </g>
     </g>
     <g id="text_15">
      <!-- B3H2 -->
      <g style="fill: #1a1a1a" transform="translate(426.626325 318.028937) rotate(-90) scale(0.075 -0.075)">
       <use xlink:href="#DejaVuSansMono-25"/>
       <use xlink:href="#DejaVuSansMono-16" transform="translate(60.203125 0)"/>
       <use xlink:href="#DejaVuSansMono-2b" transform="translate(120.40625 0)"/>
       <use xlink:href="#DejaVuSansMono-15" transform="translate(180.609375 0)"/>
      </g>
     </g>
    </g>
    <g id="xtick_16">
     <g id="line2d_16">
      <g>
       <use xlink:href="#me45cdeed4b" x="448.202535" y="292.968" style="fill: #1a1a1a; stroke: #1a1a1a; stroke-width: 0.8"/>
      </g>
     </g>
     <g id="text_16">
      <!-- B3H3 -->
      <g style="fill: #1a1a1a" transform="translate(450.150777 318.028937) rotate(-90) scale(0.075 -0.075)">
       <use xlink:href="#DejaVuSansMono-25"/>
       <use xlink:href="#DejaVuSansMono-16" transform="translate(60.203125 0)"/>
       <use xlink:href="#DejaVuSansMono-2b" transform="translate(120.40625 0)"/>
       <use xlink:href="#DejaVuSansMono-16" transform="translate(180.609375 0)"/>
      </g>
     </g>
    </g>
    <g id="xtick_17">
     <g id="line2d_17">
      <g>
       <use xlink:href="#me45cdeed4b" x="471.726987" y="292.968" style="fill: #1a1a1a; stroke: #1a1a1a; stroke-width: 0.8"/>
      </g>
     </g>
     <g id="text_17">
      <!-- B4H0 -->
      <g style="fill: #1a1a1a" transform="translate(473.675229 318.028937) rotate(-90) scale(0.075 -0.075)">
       <defs>
        <path id="DejaVuSansMono-17" d="M 2297 4091 
L 825 1625 
L 2297 1625 
L 2297 4091 
z
M 2194 4666 
L 2925 4666 
L 2925 1625 
L 3547 1625 
L 3547 1113 
L 2925 1113 
L 2925 0 
L 2297 0 
L 2297 1113 
L 319 1113 
L 319 1709 
L 2194 4666 
z
" transform="scale(0.015625)"/>
       </defs>
       <use xlink:href="#DejaVuSansMono-25"/>
       <use xlink:href="#DejaVuSansMono-17" transform="translate(60.203125 0)"/>
       <use xlink:href="#DejaVuSansMono-2b" transform="translate(120.40625 0)"/>
       <use xlink:href="#DejaVuSansMono-13" transform="translate(180.609375 0)"/>
      </g>
     </g>
    </g>
    <g id="xtick_18">
     <g id="line2d_18">
      <g>
       <use xlink:href="#me45cdeed4b" x="495.251439" y="292.968" style="fill: #1a1a1a; stroke: #1a1a1a; stroke-width: 0.8"/>
      </g>
     </g>
     <g id="text_18">
      <!-- B4H1 -->
      <g style="fill: #1a1a1a" transform="translate(497.199681 318.028937) rotate(-90) scale(0.075 -0.075)">
       <use xlink:href="#DejaVuSansMono-25"/>
       <use xlink:href="#DejaVuSansMono-17" transform="translate(60.203125 0)"/>
       <use xlink:href="#DejaVuSansMono-2b" transform="translate(120.40625 0)"/>
       <use xlink:href="#DejaVuSansMono-14" transform="translate(180.609375 0)"/>
      </g>
     </g>
    </g>
    <g id="xtick_19">
     <g id="line2d_19">
      <g>
       <use xlink:href="#me45cdeed4b" x="518.775891" y="292.968" style="fill: #1a1a1a; stroke: #1a1a1a; stroke-width: 0.8"/>
      </g>
     </g>
     <g id="text_19">
      <!-- B4H2 -->
      <g style="fill: #1a1a1a" transform="translate(520.724133 318.028937) rotate(-90) scale(0.075 -0.075)">
       <use xlink:href="#DejaVuSansMono-25"/>
       <use xlink:href="#DejaVuSansMono-17" transform="translate(60.203125 0)"/>
       <use xlink:href="#DejaVuSansMono-2b" transform="translate(120.40625 0)"/>
       <use xlink:href="#DejaVuSansMono-15" transform="translate(180.609375 0)"/>
      </g>
     </g>
    </g>
    <g id="xtick_20">
     <g id="line2d_20">
      <g>
       <use xlink:href="#me45cdeed4b" x="542.300343" y="292.968" style="fill: #1a1a1a; stroke: #1a1a1a; stroke-width: 0.8"/>
      </g>
     </g>
     <g id="text_20">
      <!-- B4H3 -->
      <g style="fill: #1a1a1a" transform="translate(544.248585 318.028937) rotate(-90) scale(0.075 -0.075)">
       <use xlink:href="#DejaVuSansMono-25"/>
       <use xlink:href="#DejaVuSansMono-17" transform="translate(60.203125 0)"/>
       <use xlink:href="#DejaVuSansMono-2b" transform="translate(120.40625 0)"/>
       <use xlink:href="#DejaVuSansMono-16" transform="translate(180.609375 0)"/>
      </g>
     </g>
    </g>
    <g id="xtick_21">
     <g id="line2d_21">
      <g>
       <use xlink:href="#me45cdeed4b" x="565.824795" y="292.968" style="fill: #1a1a1a; stroke: #1a1a1a; stroke-width: 0.8"/>
      </g>
     </g>
     <g id="text_21">
      <!-- B5H0 -->
      <g style="fill: #d55e00" transform="translate(567.773037 318.028937) rotate(-90) scale(0.075 -0.075)">
       <defs>
        <path id="DejaVuSansMono-Bold-25" d="M 1281 2119 
L 1281 738 
L 1894 738 
Q 2334 738 2511 888 
Q 2688 1038 2688 1409 
Q 2688 1788 2503 1953 
Q 2319 2119 1894 2119 
L 1281 2119 
z
M 1281 3938 
L 1281 2853 
L 1894 2853 
Q 2244 2853 2392 2978 
Q 2541 3103 2541 3391 
Q 2541 3678 2389 3808 
Q 2238 3938 1894 3938 
L 1281 3938 
z
M 391 4672 
L 1894 4672 
Q 2672 4672 3064 4376 
Q 3456 4081 3456 3494 
Q 3456 3044 3225 2791 
Q 2994 2538 2547 2497 
Q 3081 2444 3351 2137 
Q 3622 1831 3622 1281 
Q 3622 606 3215 303 
Q 2809 0 1894 0 
L 391 0 
L 391 4672 
z
" transform="scale(0.015625)"/>
        <path id="DejaVuSansMono-Bold-18" d="M 603 4666 
L 3138 4666 
L 3138 3853 
L 1350 3853 
L 1350 2988 
Q 1463 3031 1591 3051 
Q 1719 3072 1863 3072 
Q 2556 3072 2987 2634 
Q 3419 2197 3419 1497 
Q 3419 763 2951 336 
Q 2484 -91 1678 -91 
Q 1378 -91 1072 -41 
Q 766 9 447 109 
L 447 941 
Q 706 813 979 748 
Q 1253 684 1528 684 
Q 2016 684 2269 892 
Q 2522 1100 2522 1497 
Q 2522 1863 2270 2083 
Q 2019 2303 1600 2303 
Q 1353 2303 1104 2242 
Q 856 2181 603 2059 
L 603 4666 
z
" transform="scale(0.015625)"/>
        <path id="DejaVuSansMono-Bold-2b" d="M 428 4666 
L 1350 4666 
L 1350 2888 
L 2503 2888 
L 2503 4666 
L 3425 4666 
L 3425 0 
L 2503 0 
L 2503 2075 
L 1350 2075 
L 1350 0 
L 428 0 
L 428 4666 
z
" transform="scale(0.015625)"/>
        <path id="DejaVuSansMono-Bold-13" d="M 1538 2328 
Q 1538 2494 1650 2606 
Q 1763 2719 1925 2719 
Q 2091 2719 2203 2606 
Q 2316 2494 2316 2328 
Q 2316 2166 2203 2053 
Q 2091 1941 1925 1941 
Q 1763 1941 1650 2052 
Q 1538 2163 1538 2328 
z
M 1925 3969 
Q 1606 3969 1459 3578 
Q 1313 3188 1313 2328 
Q 1313 1472 1459 1081 
Q 1606 691 1925 691 
Q 2247 691 2394 1081 
Q 2541 1472 2541 2328 
Q 2541 3188 2394 3578 
Q 2247 3969 1925 3969 
z
M 384 2328 
Q 384 3541 768 4145 
Q 1153 4750 1925 4750 
Q 2700 4750 3084 4147 
Q 3469 3544 3469 2328 
Q 3469 1116 3084 512 
Q 2700 -91 1925 -91 
Q 1153 -91 768 514 
Q 384 1119 384 2328 
z
" transform="scale(0.015625)"/>
       </defs>
       <use xlink:href="#DejaVuSansMono-Bold-25"/>
       <use xlink:href="#DejaVuSansMono-Bold-18" transform="translate(60.203125 0)"/>
       <use xlink:href="#DejaVuSansMono-Bold-2b" transform="translate(120.40625 0)"/>
       <use xlink:href="#DejaVuSansMono-Bold-13" transform="translate(180.609375 0)"/>
      </g>
     </g>
    </g>
    <g id="xtick_22">
     <g id="line2d_22">
      <g>
       <use xlink:href="#me45cdeed4b" x="589.349247" y="292.968" style="fill: #1a1a1a; stroke: #1a1a1a; stroke-width: 0.8"/>
      </g>
     </g>
     <g id="text_22">
      <!-- B5H1 -->
      <g style="fill: #1a1a1a" transform="translate(591.297489 318.028937) rotate(-90) scale(0.075 -0.075)">
       <defs>
        <path id="DejaVuSansMono-18" d="M 647 4666 
L 3009 4666 
L 3009 4134 
L 1222 4134 
L 1222 2988 
Q 1356 3038 1492 3061 
Q 1628 3084 1766 3084 
Q 2491 3084 2916 2656 
Q 3341 2228 3341 1497 
Q 3341 759 2895 334 
Q 2450 -91 1678 -91 
Q 1306 -91 998 -41 
Q 691 9 447 109 
L 447 750 
Q 734 594 1025 517 
Q 1316 441 1619 441 
Q 2141 441 2423 716 
Q 2706 991 2706 1497 
Q 2706 1997 2414 2275 
Q 2122 2553 1600 2553 
Q 1347 2553 1106 2495 
Q 866 2438 647 2322 
L 647 4666 
z
" transform="scale(0.015625)"/>
       </defs>
       <use xlink:href="#DejaVuSansMono-25"/>
       <use xlink:href="#DejaVuSansMono-18" transform="translate(60.203125 0)"/>
       <use xlink:href="#DejaVuSansMono-2b" transform="translate(120.40625 0)"/>
       <use xlink:href="#DejaVuSansMono-14" transform="translate(180.609375 0)"/>
      </g>
     </g>
    </g>
    <g id="xtick_23">
     <g id="line2d_23">
      <g>
       <use xlink:href="#me45cdeed4b" x="612.873698" y="292.968" style="fill: #1a1a1a; stroke: #1a1a1a; stroke-width: 0.8"/>
      </g>
     </g>
     <g id="text_23">
      <!-- B5H2 -->
      <g style="fill: #1a1a1a" transform="translate(614.821941 318.028937) rotate(-90) scale(0.075 -0.075)">
       <use xlink:href="#DejaVuSansMono-25"/>
       <use xlink:href="#DejaVuSansMono-18" transform="translate(60.203125 0)"/>
       <use xlink:href="#DejaVuSansMono-2b" transform="translate(120.40625 0)"/>
       <use xlink:href="#DejaVuSansMono-15" transform="translate(180.609375 0)"/>
      </g>
     </g>
    </g>
    <g id="xtick_24">
     <g id="line2d_24">
      <g>
       <use xlink:href="#me45cdeed4b" x="636.39815" y="292.968" style="fill: #1a1a1a; stroke: #1a1a1a; stroke-width: 0.8"/>
      </g>
     </g>
     <g id="text_24">
      <!-- B5H3 -->
      <g style="fill: #1a1a1a" transform="translate(638.346393 318.028937) rotate(-90) scale(0.075 -0.075)">
       <use xlink:href="#DejaVuSansMono-25"/>
       <use xlink:href="#DejaVuSansMono-18" transform="translate(60.203125 0)"/>
       <use xlink:href="#DejaVuSansMono-2b" transform="translate(120.40625 0)"/>
       <use xlink:href="#DejaVuSansMono-16" transform="translate(180.609375 0)"/>
      </g>
     </g>
    </g>
   </g>
   <g id="matplotlib.axis_2">
    <g id="ytick_1">
     <g id="line2d_25">
      <path d="M 58.966953 292.968 
L 672.766953 292.968 
" clip-path="url(#pc8ee530833)" style="fill: none; stroke: #e6e8eb; stroke-width: 0.8; stroke-linecap: square"/>
     </g>
     <g id="line2d_26">
      <defs>
       <path id="mcc30f77785" d="M 0 0 
L -3.5 0 
" style="stroke: #1a1a1a; stroke-width: 0.8"/>
      </defs>
      <g>
       <use xlink:href="#mcc30f77785" x="58.966953" y="292.968" style="fill: #1a1a1a; stroke: #1a1a1a; stroke-width: 0.8"/>
      </g>
     </g>
     <g id="text_25">
      <!-- 0.0 -->
      <g style="fill: #1a1a1a" transform="translate(37.654141 296.386945) scale(0.09 -0.09)">
       <defs>
        <path id="DejaVuSans-13" d="M 2034 4250 
Q 1547 4250 1301 3770 
Q 1056 3291 1056 2328 
Q 1056 1369 1301 889 
Q 1547 409 2034 409 
Q 2525 409 2770 889 
Q 3016 1369 3016 2328 
Q 3016 3291 2770 3770 
Q 2525 4250 2034 4250 
z
M 2034 4750 
Q 2819 4750 3233 4129 
Q 3647 3509 3647 2328 
Q 3647 1150 3233 529 
Q 2819 -91 2034 -91 
Q 1250 -91 836 529 
Q 422 1150 422 2328 
Q 422 3509 836 4129 
Q 1250 4750 2034 4750 
z
" transform="scale(0.015625)"/>
        <path id="DejaVuSans-11" d="M 684 794 
L 1344 794 
L 1344 0 
L 684 0 
L 684 794 
z
" transform="scale(0.015625)"/>
       </defs>
       <use xlink:href="#DejaVuSans-13"/>
       <use xlink:href="#DejaVuSans-11" transform="translate(63.625 0)"/>
       <use xlink:href="#DejaVuSans-13" transform="translate(95.40625 0)"/>
      </g>
     </g>
    </g>
    <g id="ytick_2">
     <g id="line2d_27">
      <path d="M 58.966953 253.587898 
L 672.766953 253.587898 
" clip-path="url(#pc8ee530833)" style="fill: none; stroke: #e6e8eb; stroke-width: 0.8; stroke-linecap: square"/>
     </g>
     <g id="line2d_28">
      <g>
       <use xlink:href="#mcc30f77785" x="58.966953" y="253.587898" style="fill: #1a1a1a; stroke: #1a1a1a; stroke-width: 0.8"/>
      </g>
     </g>
     <g id="text_26">
      <!-- 0.1 -->
      <g style="fill: #1a1a1a" transform="translate(37.654141 257.006843) scale(0.09 -0.09)">
       <defs>
        <path id="DejaVuSans-14" d="M 794 531 
L 1825 531 
L 1825 4091 
L 703 3866 
L 703 4441 
L 1819 4666 
L 2450 4666 
L 2450 531 
L 3481 531 
L 3481 0 
L 794 0 
L 794 531 
z
" transform="scale(0.015625)"/>
       </defs>
       <use xlink:href="#DejaVuSans-13"/>
       <use xlink:href="#DejaVuSans-11" transform="translate(63.625 0)"/>
       <use xlink:href="#DejaVuSans-14" transform="translate(95.40625 0)"/>
      </g>
     </g>
    </g>
    <g id="ytick_3">
     <g id="line2d_29">
      <path d="M 58.966953 214.207796 
L 672.766953 214.207796 
" clip-path="url(#pc8ee530833)" style="fill: none; stroke: #e6e8eb; stroke-width: 0.8; stroke-linecap: square"/>
     </g>
     <g id="line2d_30">
      <g>
       <use xlink:href="#mcc30f77785" x="58.966953" y="214.207796" style="fill: #1a1a1a; stroke: #1a1a1a; stroke-width: 0.8"/>
      </g>
     </g>
     <g id="text_27">
      <!-- 0.2 -->
      <g style="fill: #1a1a1a" transform="translate(37.654141 217.626741) scale(0.09 -0.09)">
       <defs>
        <path id="DejaVuSans-15" d="M 1228 531 
L 3431 531 
L 3431 0 
L 469 0 
L 469 531 
Q 828 903 1448 1529 
Q 2069 2156 2228 2338 
Q 2531 2678 2651 2914 
Q 2772 3150 2772 3378 
Q 2772 3750 2511 3984 
Q 2250 4219 1831 4219 
Q 1534 4219 1204 4116 
Q 875 4013 500 3803 
L 500 4441 
Q 881 4594 1212 4672 
Q 1544 4750 1819 4750 
Q 2544 4750 2975 4387 
Q 3406 4025 3406 3419 
Q 3406 3131 3298 2873 
Q 3191 2616 2906 2266 
Q 2828 2175 2409 1742 
Q 1991 1309 1228 531 
z
" transform="scale(0.015625)"/>
       </defs>
       <use xlink:href="#DejaVuSans-13"/>
       <use xlink:href="#DejaVuSans-11" transform="translate(63.625 0)"/>
       <use xlink:href="#DejaVuSans-15" transform="translate(95.40625 0)"/>
      </g>
     </g>
    </g>
    <g id="ytick_4">
     <g id="line2d_31">
      <path d="M 58.966953 174.827694 
L 672.766953 174.827694 
" clip-path="url(#pc8ee530833)" style="fill: none; stroke: #e6e8eb; stroke-width: 0.8; stroke-linecap: square"/>
     </g>
     <g id="line2d_32">
      <g>
       <use xlink:href="#mcc30f77785" x="58.966953" y="174.827694" style="fill: #1a1a1a; stroke: #1a1a1a; stroke-width: 0.8"/>
      </g>
     </g>
     <g id="text_28">
      <!-- 0.3 -->
      <g style="fill: #1a1a1a" transform="translate(37.654141 178.246639) scale(0.09 -0.09)">
       <defs>
        <path id="DejaVuSans-16" d="M 2597 2516 
Q 3050 2419 3304 2112 
Q 3559 1806 3559 1356 
Q 3559 666 3084 287 
Q 2609 -91 1734 -91 
Q 1441 -91 1130 -33 
Q 819 25 488 141 
L 488 750 
Q 750 597 1062 519 
Q 1375 441 1716 441 
Q 2309 441 2620 675 
Q 2931 909 2931 1356 
Q 2931 1769 2642 2001 
Q 2353 2234 1838 2234 
L 1294 2234 
L 1294 2753 
L 1863 2753 
Q 2328 2753 2575 2939 
Q 2822 3125 2822 3475 
Q 2822 3834 2567 4026 
Q 2313 4219 1838 4219 
Q 1578 4219 1281 4162 
Q 984 4106 628 3988 
L 628 4550 
Q 988 4650 1302 4700 
Q 1616 4750 1894 4750 
Q 2613 4750 3031 4423 
Q 3450 4097 3450 3541 
Q 3450 3153 3228 2886 
Q 3006 2619 2597 2516 
z
" transform="scale(0.015625)"/>
       </defs>
       <use xlink:href="#DejaVuSans-13"/>
       <use xlink:href="#DejaVuSans-11" transform="translate(63.625 0)"/>
       <use xlink:href="#DejaVuSans-16" transform="translate(95.40625 0)"/>
      </g>
     </g>
    </g>
    <g id="ytick_5">
     <g id="line2d_33">
      <path d="M 58.966953 135.447592 
L 672.766953 135.447592 
" clip-path="url(#pc8ee530833)" style="fill: none; stroke: #e6e8eb; stroke-width: 0.8; stroke-linecap: square"/>
     </g>
     <g id="line2d_34">
      <g>
       <use xlink:href="#mcc30f77785" x="58.966953" y="135.447592" style="fill: #1a1a1a; stroke: #1a1a1a; stroke-width: 0.8"/>
      </g>
     </g>
     <g id="text_29">
      <!-- 0.4 -->
      <g style="fill: #1a1a1a" transform="translate(37.654141 138.866537) scale(0.09 -0.09)">
       <defs>
        <path id="DejaVuSans-17" d="M 2419 4116 
L 825 1625 
L 2419 1625 
L 2419 4116 
z
M 2253 4666 
L 3047 4666 
L 3047 1625 
L 3713 1625 
L 3713 1100 
L 3047 1100 
L 3047 0 
L 2419 0 
L 2419 1100 
L 313 1100 
L 313 1709 
L 2253 4666 
z
" transform="scale(0.015625)"/>
       </defs>
       <use xlink:href="#DejaVuSans-13"/>
       <use xlink:href="#DejaVuSans-11" transform="translate(63.625 0)"/>
       <use xlink:href="#DejaVuSans-17" transform="translate(95.40625 0)"/>
      </g>
     </g>
    </g>
    <g id="ytick_6">
     <g id="line2d_35">
      <path d="M 58.966953 96.067489 
L 672.766953 96.067489 
" clip-path="url(#pc8ee530833)" style="fill: none; stroke: #e6e8eb; stroke-width: 0.8; stroke-linecap: square"/>
     </g>
     <g id="line2d_36">
      <g>
       <use xlink:href="#mcc30f77785" x="58.966953" y="96.067489" style="fill: #1a1a1a; stroke: #1a1a1a; stroke-width: 0.8"/>
      </g>
     </g>
     <g id="text_30">
      <!-- 0.5 -->
      <g style="fill: #1a1a1a" transform="translate(37.654141 99.486435) scale(0.09 -0.09)">
       <defs>
        <path id="DejaVuSans-18" d="M 691 4666 
L 3169 4666 
L 3169 4134 
L 1269 4134 
L 1269 2991 
Q 1406 3038 1543 3061 
Q 1681 3084 1819 3084 
Q 2600 3084 3056 2656 
Q 3513 2228 3513 1497 
Q 3513 744 3044 326 
Q 2575 -91 1722 -91 
Q 1428 -91 1123 -41 
Q 819 9 494 109 
L 494 744 
Q 775 591 1075 516 
Q 1375 441 1709 441 
Q 2250 441 2565 725 
Q 2881 1009 2881 1497 
Q 2881 1984 2565 2268 
Q 2250 2553 1709 2553 
Q 1456 2553 1204 2497 
Q 953 2441 691 2322 
L 691 4666 
z
" transform="scale(0.015625)"/>
       </defs>
       <use xlink:href="#DejaVuSans-13"/>
       <use xlink:href="#DejaVuSans-11" transform="translate(63.625 0)"/>
       <use xlink:href="#DejaVuSans-18" transform="translate(95.40625 0)"/>
      </g>
     </g>
    </g>
    <g id="ytick_7">
     <g id="line2d_37">
      <path d="M 58.966953 56.687387 
L 672.766953 56.687387 
" clip-path="url(#pc8ee530833)" style="fill: none; stroke: #e6e8eb; stroke-width: 0.8; stroke-linecap: square"/>
     </g>
     <g id="line2d_38">
      <g>
       <use xlink:href="#mcc30f77785" x="58.966953" y="56.687387" style="fill: #1a1a1a; stroke: #1a1a1a; stroke-width: 0.8"/>
      </g>
     </g>
     <g id="text_31">
      <!-- 0.6 -->
      <g style="fill: #1a1a1a" transform="translate(37.654141 60.106333) scale(0.09 -0.09)">
       <defs>
        <path id="DejaVuSans-19" d="M 2113 2584 
Q 1688 2584 1439 2293 
Q 1191 2003 1191 1497 
Q 1191 994 1439 701 
Q 1688 409 2113 409 
Q 2538 409 2786 701 
Q 3034 994 3034 1497 
Q 3034 2003 2786 2293 
Q 2538 2584 2113 2584 
z
M 3366 4563 
L 3366 3988 
Q 3128 4100 2886 4159 
Q 2644 4219 2406 4219 
Q 1781 4219 1451 3797 
Q 1122 3375 1075 2522 
Q 1259 2794 1537 2939 
Q 1816 3084 2150 3084 
Q 2853 3084 3261 2657 
Q 3669 2231 3669 1497 
Q 3669 778 3244 343 
Q 2819 -91 2113 -91 
Q 1303 -91 875 529 
Q 447 1150 447 2328 
Q 447 3434 972 4092 
Q 1497 4750 2381 4750 
Q 2619 4750 2861 4703 
Q 3103 4656 3366 4563 
z
" transform="scale(0.015625)"/>
       </defs>
       <use xlink:href="#DejaVuSans-13"/>
       <use xlink:href="#DejaVuSans-11" transform="translate(63.625 0)"/>
       <use xlink:href="#DejaVuSans-19" transform="translate(95.40625 0)"/>
      </g>
     </g>
    </g>
    <g id="ytick_8">
     <g id="line2d_39">
      <path d="M 58.966953 17.307285 
L 672.766953 17.307285 
" clip-path="url(#pc8ee530833)" style="fill: none; stroke: #e6e8eb; stroke-width: 0.8; stroke-linecap: square"/>
     </g>
     <g id="line2d_40">
      <g>
       <use xlink:href="#mcc30f77785" x="58.966953" y="17.307285" style="fill: #1a1a1a; stroke: #1a1a1a; stroke-width: 0.8"/>
      </g>
     </g>
     <g id="text_32">
      <!-- 0.7 -->
      <g style="fill: #1a1a1a" transform="translate(37.654141 20.72623) scale(0.09 -0.09)">
       <defs>
        <path id="DejaVuSans-1a" d="M 525 4666 
L 3525 4666 
L 3525 4397 
L 1831 0 
L 1172 0 
L 2766 4134 
L 525 4134 
L 525 4666 
z
" transform="scale(0.015625)"/>
       </defs>
       <use xlink:href="#DejaVuSans-13"/>
       <use xlink:href="#DejaVuSans-11" transform="translate(63.625 0)"/>
       <use xlink:href="#DejaVuSans-1a" transform="translate(95.40625 0)"/>
      </g>
     </g>
    </g>
    <g id="text_33">
     <!-- copying score -->
     <g style="fill: #1a1a1a" transform="translate(16.659355 188.252281) rotate(-90) scale(0.11 -0.11)">
      <defs>
       <path id="DejaVuSans-46" d="M 3122 3366 
L 3122 2828 
Q 2878 2963 2633 3030 
Q 2388 3097 2138 3097 
Q 1578 3097 1268 2742 
Q 959 2388 959 1747 
Q 959 1106 1268 751 
Q 1578 397 2138 397 
Q 2388 397 2633 464 
Q 2878 531 3122 666 
L 3122 134 
Q 2881 22 2623 -34 
Q 2366 -91 2075 -91 
Q 1284 -91 818 406 
Q 353 903 353 1747 
Q 353 2603 823 3093 
Q 1294 3584 2113 3584 
Q 2378 3584 2631 3529 
Q 2884 3475 3122 3366 
z
" transform="scale(0.015625)"/>
       <path id="DejaVuSans-52" d="M 1959 3097 
Q 1497 3097 1228 2736 
Q 959 2375 959 1747 
Q 959 1119 1226 758 
Q 1494 397 1959 397 
Q 2419 397 2687 759 
Q 2956 1122 2956 1747 
Q 2956 2369 2687 2733 
Q 2419 3097 1959 3097 
z
M 1959 3584 
Q 2709 3584 3137 3096 
Q 3566 2609 3566 1747 
Q 3566 888 3137 398 
Q 2709 -91 1959 -91 
Q 1206 -91 779 398 
Q 353 888 353 1747 
Q 353 2609 779 3096 
Q 1206 3584 1959 3584 
z
" transform="scale(0.015625)"/>
       <path id="DejaVuSans-53" d="M 1159 525 
L 1159 -1331 
L 581 -1331 
L 581 3500 
L 1159 3500 
L 1159 2969 
Q 1341 3281 1617 3432 
Q 1894 3584 2278 3584 
Q 2916 3584 3314 3078 
Q 3713 2572 3713 1747 
Q 3713 922 3314 415 
Q 2916 -91 2278 -91 
Q 1894 -91 1617 61 
Q 1341 213 1159 525 
z
M 3116 1747 
Q 3116 2381 2855 2742 
Q 2594 3103 2138 3103 
Q 1681 3103 1420 2742 
Q 1159 2381 1159 1747 
Q 1159 1113 1420 752 
Q 1681 391 2138 391 
Q 2594 391 2855 752 
Q 3116 1113 3116 1747 
z
" transform="scale(0.015625)"/>
       <path id="DejaVuSans-5c" d="M 2059 -325 
Q 1816 -950 1584 -1140 
Q 1353 -1331 966 -1331 
L 506 -1331 
L 506 -850 
L 844 -850 
Q 1081 -850 1212 -737 
Q 1344 -625 1503 -206 
L 1606 56 
L 191 3500 
L 800 3500 
L 1894 763 
L 2988 3500 
L 3597 3500 
L 2059 -325 
z
" transform="scale(0.015625)"/>
       <path id="DejaVuSans-4c" d="M 603 3500 
L 1178 3500 
L 1178 0 
L 603 0 
L 603 3500 
z
M 603 4863 
L 1178 4863 
L 1178 4134 
L 603 4134 
L 603 4863 
z
" transform="scale(0.015625)"/>
       <path id="DejaVuSans-51" d="M 3513 2113 
L 3513 0 
L 2938 0 
L 2938 2094 
Q 2938 2591 2744 2837 
Q 2550 3084 2163 3084 
Q 1697 3084 1428 2787 
Q 1159 2491 1159 1978 
L 1159 0 
L 581 0 
L 581 3500 
L 1159 3500 
L 1159 2956 
Q 1366 3272 1645 3428 
Q 1925 3584 2291 3584 
Q 2894 3584 3203 3211 
Q 3513 2838 3513 2113 
z
" transform="scale(0.015625)"/>
       <path id="DejaVuSans-4a" d="M 2906 1791 
Q 2906 2416 2648 2759 
Q 2391 3103 1925 3103 
Q 1463 3103 1205 2759 
Q 947 2416 947 1791 
Q 947 1169 1205 825 
Q 1463 481 1925 481 
Q 2391 481 2648 825 
Q 2906 1169 2906 1791 
z
M 3481 434 
Q 3481 -459 3084 -895 
Q 2688 -1331 1869 -1331 
Q 1566 -1331 1297 -1286 
Q 1028 -1241 775 -1147 
L 775 -588 
Q 1028 -725 1275 -790 
Q 1522 -856 1778 -856 
Q 2344 -856 2625 -561 
Q 2906 -266 2906 331 
L 2906 616 
Q 2728 306 2450 153 
Q 2172 0 1784 0 
Q 1141 0 747 490 
Q 353 981 353 1791 
Q 353 2603 747 3093 
Q 1141 3584 1784 3584 
Q 2172 3584 2450 3431 
Q 2728 3278 2906 2969 
L 2906 3500 
L 3481 3500 
L 3481 434 
z
" transform="scale(0.015625)"/>
       <path id="DejaVuSans-3" transform="scale(0.015625)"/>
       <path id="DejaVuSans-56" d="M 2834 3397 
L 2834 2853 
Q 2591 2978 2328 3040 
Q 2066 3103 1784 3103 
Q 1356 3103 1142 2972 
Q 928 2841 928 2578 
Q 928 2378 1081 2264 
Q 1234 2150 1697 2047 
L 1894 2003 
Q 2506 1872 2764 1633 
Q 3022 1394 3022 966 
Q 3022 478 2636 193 
Q 2250 -91 1575 -91 
Q 1294 -91 989 -36 
Q 684 19 347 128 
L 347 722 
Q 666 556 975 473 
Q 1284 391 1588 391 
Q 1994 391 2212 530 
Q 2431 669 2431 922 
Q 2431 1156 2273 1281 
Q 2116 1406 1581 1522 
L 1381 1569 
Q 847 1681 609 1914 
Q 372 2147 372 2553 
Q 372 3047 722 3315 
Q 1072 3584 1716 3584 
Q 2034 3584 2315 3537 
Q 2597 3491 2834 3397 
z
" transform="scale(0.015625)"/>
       <path id="DejaVuSans-55" d="M 2631 2963 
Q 2534 3019 2420 3045 
Q 2306 3072 2169 3072 
Q 1681 3072 1420 2755 
Q 1159 2438 1159 1844 
L 1159 0 
L 581 0 
L 581 3500 
L 1159 3500 
L 1159 2956 
Q 1341 3275 1631 3429 
Q 1922 3584 2338 3584 
Q 2397 3584 2469 3576 
Q 2541 3569 2628 3553 
L 2631 2963 
z
" transform="scale(0.015625)"/>
       <path id="DejaVuSans-48" d="M 3597 1894 
L 3597 1613 
L 953 1613 
Q 991 1019 1311 708 
Q 1631 397 2203 397 
Q 2534 397 2845 478 
Q 3156 559 3463 722 
L 3463 178 
Q 3153 47 2828 -22 
Q 2503 -91 2169 -91 
Q 1331 -91 842 396 
Q 353 884 353 1716 
Q 353 2575 817 3079 
Q 1281 3584 2069 3584 
Q 2775 3584 3186 3129 
Q 3597 2675 3597 1894 
z
M 3022 2063 
Q 3016 2534 2758 2815 
Q 2500 3097 2075 3097 
Q 1594 3097 1305 2825 
Q 1016 2553 972 2059 
L 3022 2063 
z
" transform="scale(0.015625)"/>
      </defs>
      <use xlink:href="#DejaVuSans-46"/>
      <use xlink:href="#DejaVuSans-52" transform="translate(54.984375 0)"/>
      <use xlink:href="#DejaVuSans-53" transform="translate(116.171875 0)"/>
      <use xlink:href="#DejaVuSans-5c" transform="translate(179.65625 0)"/>
      <use xlink:href="#DejaVuSans-4c" transform="translate(238.84375 0)"/>
      <use xlink:href="#DejaVuSans-51" transform="translate(266.625 0)"/>
      <use xlink:href="#DejaVuSans-4a" transform="translate(330 0)"/>
      <use xlink:href="#DejaVuSans-3" transform="translate(393.484375 0)"/>
      <use xlink:href="#DejaVuSans-56" transform="translate(425.265625 0)"/>
      <use xlink:href="#DejaVuSans-46" transform="translate(477.359375 0)"/>
      <use xlink:href="#DejaVuSans-52" transform="translate(532.34375 0)"/>
      <use xlink:href="#DejaVuSans-55" transform="translate(593.53125 0)"/>
      <use xlink:href="#DejaVuSans-48" transform="translate(632.4375 0)"/>
     </g>
     <!-- (Σ Re λ / Σ |λ|, top-64 eigenvalues) -->
     <g style="fill: #1a1a1a" transform="translate(29.910488 245.496969) rotate(-90) scale(0.11 -0.11)">
      <defs>
       <path id="DejaVuSans-b" d="M 1984 4856 
Q 1566 4138 1362 3434 
Q 1159 2731 1159 2009 
Q 1159 1288 1364 580 
Q 1569 -128 1984 -844 
L 1484 -844 
Q 1016 -109 783 600 
Q 550 1309 550 2009 
Q 550 2706 781 3412 
Q 1013 4119 1484 4856 
L 1984 4856 
z
" transform="scale(0.015625)"/>
       <path id="DejaVuSans-337" d="M 1353 531 
L 3634 531 
L 3634 0 
L 628 0 
L 628 531 
L 2125 2481 
L 628 4134 
L 628 4666 
L 3578 4666 
L 3578 4134 
L 1353 4134 
L 2850 2494 
L 1353 531 
z
" transform="scale(0.015625)"/>
       <path id="DejaVuSans-35" d="M 2841 2188 
Q 3044 2119 3236 1894 
Q 3428 1669 3622 1275 
L 4263 0 
L 3584 0 
L 2988 1197 
Q 2756 1666 2539 1819 
Q 2322 1972 1947 1972 
L 1259 1972 
L 1259 0 
L 628 0 
L 628 4666 
L 2053 4666 
Q 2853 4666 3247 4331 
Q 3641 3997 3641 3322 
Q 3641 2881 3436 2590 
Q 3231 2300 2841 2188 
z
M 1259 4147 
L 1259 2491 
L 2053 2491 
Q 2509 2491 2742 2702 
Q 2975 2913 2975 3322 
Q 2975 3731 2742 3939 
Q 2509 4147 2053 4147 
L 1259 4147 
z
" transform="scale(0.015625)"/>
       <path id="DejaVuSans-34f" d="M 1981 4316 
L 3597 0 
L 2988 0 
L 2006 2588 
L 800 0 
L 191 0 
L 1725 3356 
L 1494 3975 
Q 1347 4369 1013 4369 
L 713 4369 
L 713 4863 
L 1078 4856 
Q 1784 4847 1981 4316 
z
" transform="scale(0.015625)"/>
       <path id="DejaVuSans-12" d="M 1625 4666 
L 2156 4666 
L 531 -594 
L 0 -594 
L 1625 4666 
z
" transform="scale(0.015625)"/>
       <path id="DejaVuSans-5f" d="M 1344 4891 
L 1344 -1509 
L 813 -1509 
L 813 4891 
L 1344 4891 
z
" transform="scale(0.015625)"/>
       <path id="DejaVuSans-f" d="M 750 794 
L 1409 794 
L 1409 256 
L 897 -744 
L 494 -744 
L 750 256 
L 750 794 
z
" transform="scale(0.015625)"/>
       <path id="DejaVuSans-57" d="M 1172 4494 
L 1172 3500 
L 2356 3500 
L 2356 3053 
L 1172 3053 
L 1172 1153 
Q 1172 725 1289 603 
Q 1406 481 1766 481 
L 2356 481 
L 2356 0 
L 1766 0 
Q 1100 0 847 248 
Q 594 497 594 1153 
L 594 3053 
L 172 3053 
L 172 3500 
L 594 3500 
L 594 4494 
L 1172 4494 
z
" transform="scale(0.015625)"/>
       <path id="DejaVuSans-10" d="M 313 2009 
L 1997 2009 
L 1997 1497 
L 313 1497 
L 313 2009 
z
" transform="scale(0.015625)"/>
       <path id="DejaVuSans-59" d="M 191 3500 
L 800 3500 
L 1894 563 
L 2988 3500 
L 3597 3500 
L 2284 0 
L 1503 0 
L 191 3500 
z
" transform="scale(0.015625)"/>
       <path id="DejaVuSans-44" d="M 2194 1759 
Q 1497 1759 1228 1600 
Q 959 1441 959 1056 
Q 959 750 1161 570 
Q 1363 391 1709 391 
Q 2188 391 2477 730 
Q 2766 1069 2766 1631 
L 2766 1759 
L 2194 1759 
z
M 3341 1997 
L 3341 0 
L 2766 0 
L 2766 531 
Q 2569 213 2275 61 
Q 1981 -91 1556 -91 
Q 1019 -91 701 211 
Q 384 513 384 1019 
Q 384 1609 779 1909 
Q 1175 2209 1959 2209 
L 2766 2209 
L 2766 2266 
Q 2766 2663 2505 2880 
Q 2244 3097 1772 3097 
Q 1472 3097 1187 3025 
Q 903 2953 641 2809 
L 641 3341 
Q 956 3463 1253 3523 
Q 1550 3584 1831 3584 
Q 2591 3584 2966 3190 
Q 3341 2797 3341 1997 
z
" transform="scale(0.015625)"/>
       <path id="DejaVuSans-4f" d="M 603 4863 
L 1178 4863 
L 1178 0 
L 603 0 
L 603 4863 
z
" transform="scale(0.015625)"/>
       <path id="DejaVuSans-58" d="M 544 1381 
L 544 3500 
L 1119 3500 
L 1119 1403 
Q 1119 906 1312 657 
Q 1506 409 1894 409 
Q 2359 409 2629 706 
Q 2900 1003 2900 1516 
L 2900 3500 
L 3475 3500 
L 3475 0 
L 2900 0 
L 2900 538 
Q 2691 219 2414 64 
Q 2138 -91 1772 -91 
Q 1169 -91 856 284 
Q 544 659 544 1381 
z
M 1991 3584 
L 1991 3584 
z
" transform="scale(0.015625)"/>
       <path id="DejaVuSans-c" d="M 513 4856 
L 1013 4856 
Q 1481 4119 1714 3412 
Q 1947 2706 1947 2009 
Q 1947 1309 1714 600 
Q 1481 -109 1013 -844 
L 513 -844 
Q 928 -128 1133 580 
Q 1338 1288 1338 2009 
Q 1338 2731 1133 3434 
Q 928 4138 513 4856 
z
" transform="scale(0.015625)"/>
      </defs>
      <use xlink:href="#DejaVuSans-b"/>
      <use xlink:href="#DejaVuSans-337" transform="translate(39.015625 0)"/>
      <use xlink:href="#DejaVuSans-3" transform="translate(102.203125 0)"/>
      <use xlink:href="#DejaVuSans-35" transform="translate(133.984375 0)"/>
      <use xlink:href="#DejaVuSans-48" transform="translate(198.984375 0)"/>
      <use xlink:href="#DejaVuSans-3" transform="translate(260.515625 0)"/>
      <use xlink:href="#DejaVuSans-34f" transform="translate(292.296875 0)"/>
      <use xlink:href="#DejaVuSans-3" transform="translate(351.484375 0)"/>
      <use xlink:href="#DejaVuSans-12" transform="translate(383.265625 0)"/>
      <use xlink:href="#DejaVuSans-3" transform="translate(416.953125 0)"/>
      <use xlink:href="#DejaVuSans-337" transform="translate(448.734375 0)"/>
      <use xlink:href="#DejaVuSans-3" transform="translate(511.921875 0)"/>
      <use xlink:href="#DejaVuSans-5f" transform="translate(543.703125 0)"/>
      <use xlink:href="#DejaVuSans-34f" transform="translate(577.390625 0)"/>
      <use xlink:href="#DejaVuSans-5f" transform="translate(636.578125 0)"/>
      <use xlink:href="#DejaVuSans-f" transform="translate(670.265625 0)"/>
      <use xlink:href="#DejaVuSans-3" transform="translate(702.046875 0)"/>
      <use xlink:href="#DejaVuSans-57" transform="translate(733.828125 0)"/>
      <use xlink:href="#DejaVuSans-52" transform="translate(773.03125 0)"/>
      <use xlink:href="#DejaVuSans-53" transform="translate(834.21875 0)"/>
      <use xlink:href="#DejaVuSans-10" transform="translate(897.703125 0)"/>
      <use xlink:href="#DejaVuSans-19" transform="translate(933.78125 0)"/>
      <use xlink:href="#DejaVuSans-17" transform="translate(997.40625 0)"/>
      <use xlink:href="#DejaVuSans-3" transform="translate(1061.03125 0)"/>
      <use xlink:href="#DejaVuSans-48" transform="translate(1092.8125 0)"/>
      <use xlink:href="#DejaVuSans-4c" transform="translate(1154.34375 0)"/>
      <use xlink:href="#DejaVuSans-4a" transform="translate(1182.125 0)"/>
      <use xlink:href="#DejaVuSans-48" transform="translate(1245.609375 0)"/>
      <use xlink:href="#DejaVuSans-51" transform="translate(1307.140625 0)"/>
      <use xlink:href="#DejaVuSans-59" transform="translate(1370.515625 0)"/>
      <use xlink:href="#DejaVuSans-44" transform="translate(1429.703125 0)"/>
      <use xlink:href="#DejaVuSans-4f" transform="translate(1490.984375 0)"/>
      <use xlink:href="#DejaVuSans-58" transform="translate(1518.765625 0)"/>
      <use xlink:href="#DejaVuSans-48" transform="translate(1582.140625 0)"/>
      <use xlink:href="#DejaVuSans-56" transform="translate(1643.671875 0)"/>
      <use xlink:href="#DejaVuSans-c" transform="translate(1695.765625 0)"/>
     </g>
    </g>
   </g>
   <g id="line2d_41">
    <path d="M 58.966953 156.281512 
L 672.766953 156.281512 
" clip-path="url(#pc8ee530833)" style="fill: none; stroke-dasharray: 4,3; stroke-dashoffset: 0; stroke: #b0b6bc"/>
   </g>
   <g id="patch_3">
    <path d="M 58.966953 292.968 
L 58.966953 7.2 
" style="fill: none; stroke: #c7ccd1; stroke-width: 0.8; stroke-linejoin: miter; stroke-linecap: square"/>
   </g>
   <g id="patch_4">
    <path d="M 58.966953 292.968 
L 672.766953 292.968 
" style="fill: none; stroke: #c7ccd1; stroke-width: 0.8; stroke-linejoin: miter; stroke-linecap: square"/>
   </g>
   <g id="patch_5">
    <path d="M 86.866953 292.968 
L 103.804559 292.968 
L 103.804559 230.304735 
L 86.866953 230.304735 
z
" clip-path="url(#pc8ee530833)" style="fill: #b9c0c8; stroke: #ffffff; stroke-width: 0.6; stroke-linejoin: miter"/>
   </g>
   <g id="patch_6">
    <path d="M 110.391405 292.968 
L 127.32901 292.968 
L 127.32901 295.012788 
L 110.391405 295.012788 
z
" clip-path="url(#pc8ee530833)" style="fill: #b9c0c8; stroke: #ffffff; stroke-width: 0.6; stroke-linejoin: miter"/>
   </g>
   <g id="patch_7">
    <path d="M 133.915857 292.968 
L 150.853462 292.968 
L 150.853462 181.107041 
L 133.915857 181.107041 
z
" clip-path="url(#pc8ee530833)" style="fill: #b9c0c8; stroke: #ffffff; stroke-width: 0.6; stroke-linejoin: miter"/>
   </g>
   <g id="patch_8">
    <path d="M 157.440309 292.968 
L 174.377914 292.968 
L 174.377914 265.591773 
L 157.440309 265.591773 
z
" clip-path="url(#pc8ee530833)" style="fill: #b9c0c8; stroke: #ffffff; stroke-width: 0.6; stroke-linejoin: miter"/>
   </g>
   <g id="patch_9">
    <path d="M 180.964761 292.968 
L 197.902366 292.968 
L 197.902366 293.109926 
L 180.964761 293.109926 
z
" clip-path="url(#pc8ee530833)" style="fill: #b9c0c8; stroke: #ffffff; stroke-width: 0.6; stroke-linejoin: miter"/>
   </g>
   <g id="patch_10">
    <path d="M 204.489213 292.968 
L 221.426818 292.968 
L 221.426818 156.281512 
L 204.489213 156.281512 
z
" clip-path="url(#pc8ee530833)" style="fill: #b9c0c8; stroke: #ffffff; stroke-width: 0.6; stroke-linejoin: miter"/>
   </g>
   <g id="patch_11">
    <path d="M 228.013665 292.968 
L 244.95127 292.968 
L 244.95127 245.401879 
L 228.013665 245.401879 
z
" clip-path="url(#pc8ee530833)" style="fill: #b9c0c8; stroke: #ffffff; stroke-width: 0.6; stroke-linejoin: miter"/>
   </g>
   <g id="patch_12">
    <path d="M 251.538117 292.968 
L 268.475722 292.968 
L 268.475722 312.675414 
L 251.538117 312.675414 
z
" clip-path="url(#pc8ee530833)" style="fill: #b9c0c8; stroke: #ffffff; stroke-width: 0.6; stroke-linejoin: miter"/>
   </g>
   <g id="patch_13">
    <path d="M 275.062569 292.968 
L 292.000174 292.968 
L 292.000174 305.565989 
L 275.062569 305.565989 
z
" clip-path="url(#pc8ee530833)" style="fill: #b9c0c8; stroke: #ffffff; stroke-width: 0.6; stroke-linejoin: miter"/>
   </g>
   <g id="patch_14">
    <path d="M 298.587021 292.968 
L 315.524626 292.968 
L 315.524626 288.8617 
L 298.587021 288.8617 
z
" clip-path="url(#pc8ee530833)" style="fill: #b9c0c8; stroke: #ffffff; stroke-width: 0.6; stroke-linejoin: miter"/>
   </g>
   <g id="patch_15">
    <path d="M 322.111473 292.968 
L 339.049078 292.968 
L 339.049078 306.453353 
L 322.111473 306.453353 
z
" clip-path="url(#pc8ee530833)" style="fill: #b9c0c8; stroke: #ffffff; stroke-width: 0.6; stroke-linejoin: miter"/>
   </g>
   <g id="patch_16">
    <path d="M 345.635924 292.968 
L 362.57353 292.968 
L 362.57353 316.488524 
L 345.635924 316.488524 
z
" clip-path="url(#pc8ee530833)" style="fill: #b9c0c8; stroke: #ffffff; stroke-width: 0.6; stroke-linejoin: miter"/>
   </g>
   <g id="patch_17">
    <path d="M 369.160376 292.968 
L 386.097982 292.968 
L 386.097982 275.704706 
L 369.160376 275.704706 
z
" clip-path="url(#pc8ee530833)" style="fill: #b9c0c8; stroke: #ffffff; stroke-width: 0.6; stroke-linejoin: miter"/>
   </g>
   <g id="patch_18">
    <path d="M 392.684828 292.968 
L 409.622434 292.968 
L 409.622434 270.342126 
L 392.684828 270.342126 
z
" clip-path="url(#pc8ee530833)" style="fill: #b9c0c8; stroke: #ffffff; stroke-width: 0.6; stroke-linejoin: miter"/>
   </g>
   <g id="patch_19">
    <path d="M 416.20928 292.968 
L 433.146886 292.968 
L 433.146886 272.596277 
L 416.20928 272.596277 
z
" clip-path="url(#pc8ee530833)" style="fill: #b9c0c8; stroke: #ffffff; stroke-width: 0.6; stroke-linejoin: miter"/>
   </g>
   <g id="patch_20">
    <path d="M 439.733732 292.968 
L 456.671338 292.968 
L 456.671338 285.549619 
L 439.733732 285.549619 
z
" clip-path="url(#pc8ee530833)" style="fill: #b9c0c8; stroke: #ffffff; stroke-width: 0.6; stroke-linejoin: miter"/>
   </g>
   <g id="patch_21">
    <path d="M 463.258184 292.968 
L 480.19579 292.968 
L 480.19579 246.548525 
L 463.258184 246.548525 
z
" clip-path="url(#pc8ee530833)" style="fill: #b9c0c8; stroke: #ffffff; stroke-width: 0.6; stroke-linejoin: miter"/>
   </g>
   <g id="patch_22">
    <path d="M 486.782636 292.968 
L 503.720241 292.968 
L 503.720241 285.02101 
L 486.782636 285.02101 
z
" clip-path="url(#pc8ee530833)" style="fill: #b9c0c8; stroke: #ffffff; stroke-width: 0.6; stroke-linejoin: miter"/>
   </g>
   <g id="patch_23">
    <path d="M 510.307088 292.968 
L 527.244693 292.968 
L 527.244693 263.638276 
L 510.307088 263.638276 
z
" clip-path="url(#pc8ee530833)" style="fill: #b9c0c8; stroke: #ffffff; stroke-width: 0.6; stroke-linejoin: miter"/>
   </g>
   <g id="patch_24">
    <path d="M 533.83154 292.968 
L 550.769145 292.968 
L 550.769145 264.099136 
L 533.83154 264.099136 
z
" clip-path="url(#pc8ee530833)" style="fill: #b9c0c8; stroke: #ffffff; stroke-width: 0.6; stroke-linejoin: miter"/>
   </g>
   <g id="patch_25">
    <path d="M 557.355992 292.968 
L 574.293597 292.968 
L 574.293597 50.791729 
L 557.355992 50.791729 
z
" clip-path="url(#pc8ee530833)" style="fill: #d55e00; stroke: #ffffff; stroke-width: 0.6; stroke-linejoin: miter"/>
   </g>
   <g id="patch_26">
    <path d="M 580.880444 292.968 
L 597.818049 292.968 
L 597.818049 243.444591 
L 580.880444 243.444591 
z
" clip-path="url(#pc8ee530833)" style="fill: #b9c0c8; stroke: #ffffff; stroke-width: 0.6; stroke-linejoin: miter"/>
   </g>
   <g id="patch_27">
    <path d="M 604.404896 292.968 
L 621.342501 292.968 
L 621.342501 239.48225 
L 604.404896 239.48225 
z
" clip-path="url(#pc8ee530833)" style="fill: #b9c0c8; stroke: #ffffff; stroke-width: 0.6; stroke-linejoin: miter"/>
   </g>
   <g id="patch_28">
    <path d="M 627.929348 292.968 
L 644.866953 292.968 
L 644.866953 287.765922 
L 627.929348 287.765922 
z
" clip-path="url(#pc8ee530833)" style="fill: #b9c0c8; stroke: #ffffff; stroke-width: 0.6; stroke-linejoin: miter"/>
   </g>
   <g id="text_34">
    <!-- next best = 0.35 -->
    <g style="fill: #7a828a" transform="translate(104.745537 148.726306) scale(0.085 -0.085)">
     <defs>
      <path id="DejaVuSans-5b" d="M 3513 3500 
L 2247 1797 
L 3578 0 
L 2900 0 
L 1881 1375 
L 863 0 
L 184 0 
L 1544 1831 
L 300 3500 
L 978 3500 
L 1906 2253 
L 2834 3500 
L 3513 3500 
z
" transform="scale(0.015625)"/>
      <path id="DejaVuSans-45" d="M 3116 1747 
Q 3116 2381 2855 2742 
Q 2594 3103 2138 3103 
Q 1681 3103 1420 2742 
Q 1159 2381 1159 1747 
Q 1159 1113 1420 752 
Q 1681 391 2138 391 
Q 2594 391 2855 752 
Q 3116 1113 3116 1747 
z
M 1159 2969 
Q 1341 3281 1617 3432 
Q 1894 3584 2278 3584 
Q 2916 3584 3314 3078 
Q 3713 2572 3713 1747 
Q 3713 922 3314 415 
Q 2916 -91 2278 -91 
Q 1894 -91 1617 61 
Q 1341 213 1159 525 
L 1159 0 
L 581 0 
L 581 4863 
L 1159 4863 
L 1159 2969 
z
" transform="scale(0.015625)"/>
      <path id="DejaVuSans-20" d="M 678 2906 
L 4684 2906 
L 4684 2381 
L 678 2381 
L 678 2906 
z
M 678 1631 
L 4684 1631 
L 4684 1100 
L 678 1100 
L 678 1631 
z
" transform="scale(0.015625)"/>
     </defs>
     <use xlink:href="#DejaVuSans-51"/>
     <use xlink:href="#DejaVuSans-48" transform="translate(63.375 0)"/>
     <use xlink:href="#DejaVuSans-5b" transform="translate(123.15625 0)"/>
     <use xlink:href="#DejaVuSans-57" transform="translate(182.34375 0)"/>
     <use xlink:href="#DejaVuSans-3" transform="translate(221.546875 0)"/>
     <use xlink:href="#DejaVuSans-45" transform="translate(253.328125 0)"/>
     <use xlink:href="#DejaVuSans-48" transform="translate(316.8125 0)"/>
     <use xlink:href="#DejaVuSans-56" transform="translate(378.34375 0)"/>
     <use xlink:href="#DejaVuSans-57" transform="translate(430.4375 0)"/>
     <use xlink:href="#DejaVuSans-3" transform="translate(469.640625 0)"/>
     <use xlink:href="#DejaVuSans-20" transform="translate(501.421875 0)"/>
     <use xlink:href="#DejaVuSans-3" transform="translate(585.21875 0)"/>
     <use xlink:href="#DejaVuSans-13" transform="translate(617 0)"/>
     <use xlink:href="#DejaVuSans-11" transform="translate(680.625 0)"/>
     <use xlink:href="#DejaVuSans-16" transform="translate(712.40625 0)"/>
     <use xlink:href="#DejaVuSans-18" transform="translate(776.03125 0)"/>
    </g>
   </g>
   <g id="patch_29">
    <path d="M 622.987425 44.286098 
Q 595.531295 43.443755 569.501654 49.874096 
" style="fill: none; stroke: #d55e00; stroke-width: 1.6; stroke-linecap: round"/>
    <path d="M 574.082719 50.905525 
L 569.501654 49.874096 
L 573.075436 46.828101 
z
" style="fill: #d55e00; stroke: #d55e00; stroke-width: 1.6; stroke-linecap: round"/>
   </g>
   <g id="text_35">
    <!-- B5H0 = 0.615 -->
    <g style="fill: #d55e00" transform="translate(626.98837 51.944273) scale(0.105 -0.105)">
     <defs>
      <path id="DejaVuSans-Bold-25" d="M 2456 2859 
Q 2741 2859 2887 2984 
Q 3034 3109 3034 3353 
Q 3034 3594 2887 3720 
Q 2741 3847 2456 3847 
L 1791 3847 
L 1791 2859 
L 2456 2859 
z
M 2497 819 
Q 2859 819 3042 972 
Q 3225 1125 3225 1434 
Q 3225 1738 3044 1889 
Q 2863 2041 2497 2041 
L 1791 2041 
L 1791 819 
L 2497 819 
z
M 3616 2497 
Q 4003 2384 4215 2081 
Q 4428 1778 4428 1338 
Q 4428 663 3972 331 
Q 3516 0 2584 0 
L 588 0 
L 588 4666 
L 2394 4666 
Q 3366 4666 3802 4372 
Q 4238 4078 4238 3431 
Q 4238 3091 4078 2852 
Q 3919 2613 3616 2497 
z
" transform="scale(0.015625)"/>
      <path id="DejaVuSans-Bold-18" d="M 678 4666 
L 3669 4666 
L 3669 3781 
L 1638 3781 
L 1638 3059 
Q 1775 3097 1914 3117 
Q 2053 3138 2203 3138 
Q 3056 3138 3531 2711 
Q 4006 2284 4006 1522 
Q 4006 766 3489 337 
Q 2972 -91 2053 -91 
Q 1656 -91 1267 -14 
Q 878 63 494 219 
L 494 1166 
Q 875 947 1217 837 
Q 1559 728 1863 728 
Q 2300 728 2551 942 
Q 2803 1156 2803 1522 
Q 2803 1891 2551 2103 
Q 2300 2316 1863 2316 
Q 1603 2316 1309 2248 
Q 1016 2181 678 2041 
L 678 4666 
z
" transform="scale(0.015625)"/>
      <path id="DejaVuSans-Bold-2b" d="M 588 4666 
L 1791 4666 
L 1791 2888 
L 3566 2888 
L 3566 4666 
L 4769 4666 
L 4769 0 
L 3566 0 
L 3566 1978 
L 1791 1978 
L 1791 0 
L 588 0 
L 588 4666 
z
" transform="scale(0.015625)"/>
      <path id="DejaVuSans-Bold-13" d="M 2944 2338 
Q 2944 3213 2780 3570 
Q 2616 3928 2228 3928 
Q 1841 3928 1675 3570 
Q 1509 3213 1509 2338 
Q 1509 1453 1675 1090 
Q 1841 728 2228 728 
Q 2613 728 2778 1090 
Q 2944 1453 2944 2338 
z
M 4147 2328 
Q 4147 1169 3647 539 
Q 3147 -91 2228 -91 
Q 1306 -91 806 539 
Q 306 1169 306 2328 
Q 306 3491 806 4120 
Q 1306 4750 2228 4750 
Q 3147 4750 3647 4120 
Q 4147 3491 4147 2328 
z
" transform="scale(0.015625)"/>
      <path id="DejaVuSans-Bold-3" transform="scale(0.015625)"/>
      <path id="DejaVuSans-Bold-20" d="M 678 3084 
L 4684 3084 
L 4684 2350 
L 678 2350 
L 678 3084 
z
M 678 1663 
L 4684 1663 
L 4684 922 
L 678 922 
L 678 1663 
z
" transform="scale(0.015625)"/>
      <path id="DejaVuSans-Bold-11" d="M 653 1209 
L 1778 1209 
L 1778 0 
L 653 0 
L 653 1209 
z
" transform="scale(0.015625)"/>
      <path id="DejaVuSans-Bold-19" d="M 2316 2303 
Q 2000 2303 1842 2098 
Q 1684 1894 1684 1484 
Q 1684 1075 1842 870 
Q 2000 666 2316 666 
Q 2634 666 2792 870 
Q 2950 1075 2950 1484 
Q 2950 1894 2792 2098 
Q 2634 2303 2316 2303 
z
M 3803 4544 
L 3803 3681 
Q 3506 3822 3243 3889 
Q 2981 3956 2731 3956 
Q 2194 3956 1894 3657 
Q 1594 3359 1544 2772 
Q 1750 2925 1990 3001 
Q 2231 3078 2516 3078 
Q 3231 3078 3670 2659 
Q 4109 2241 4109 1563 
Q 4109 813 3618 361 
Q 3128 -91 2303 -91 
Q 1394 -91 895 523 
Q 397 1138 397 2266 
Q 397 3422 980 4083 
Q 1563 4744 2578 4744 
Q 2900 4744 3203 4694 
Q 3506 4644 3803 4544 
z
" transform="scale(0.015625)"/>
      <path id="DejaVuSans-Bold-14" d="M 750 831 
L 1813 831 
L 1813 3847 
L 722 3622 
L 722 4441 
L 1806 4666 
L 2950 4666 
L 2950 831 
L 4013 831 
L 4013 0 
L 750 0 
L 750 831 
z
" transform="scale(0.015625)"/>
     </defs>
     <use xlink:href="#DejaVuSans-Bold-25"/>
     <use xlink:href="#DejaVuSans-Bold-18" transform="translate(76.21875 0)"/>
     <use xlink:href="#DejaVuSans-Bold-2b" transform="translate(145.796875 0)"/>
     <use xlink:href="#DejaVuSans-Bold-13" transform="translate(229.484375 0)"/>
     <use xlink:href="#DejaVuSans-Bold-3" transform="translate(299.0625 0)"/>
     <use xlink:href="#DejaVuSans-Bold-20" transform="translate(333.875 0)"/>
     <use xlink:href="#DejaVuSans-Bold-3" transform="translate(417.671875 0)"/>
     <use xlink:href="#DejaVuSans-Bold-13" transform="translate(452.484375 0)"/>
     <use xlink:href="#DejaVuSans-Bold-11" transform="translate(522.0625 0)"/>
     <use xlink:href="#DejaVuSans-Bold-19" transform="translate(560.046875 0)"/>
     <use xlink:href="#DejaVuSans-Bold-14" transform="translate(629.625 0)"/>
     <use xlink:href="#DejaVuSans-Bold-18" transform="translate(699.203125 0)"/>
    </g>
    <!-- the only contender -->
    <g style="fill: #d55e00" transform="translate(626.98837 64.547144) scale(0.105 -0.105)">
     <defs>
      <path id="DejaVuSans-Bold-57" d="M 1759 4494 
L 1759 3500 
L 2913 3500 
L 2913 2700 
L 1759 2700 
L 1759 1216 
Q 1759 972 1856 886 
Q 1953 800 2241 800 
L 2816 800 
L 2816 0 
L 1856 0 
Q 1194 0 917 276 
Q 641 553 641 1216 
L 641 2700 
L 84 2700 
L 84 3500 
L 641 3500 
L 641 4494 
L 1759 4494 
z
" transform="scale(0.015625)"/>
      <path id="DejaVuSans-Bold-4b" d="M 4056 2131 
L 4056 0 
L 2931 0 
L 2931 347 
L 2931 1625 
Q 2931 2084 2911 2256 
Q 2891 2428 2841 2509 
Q 2775 2619 2662 2680 
Q 2550 2741 2406 2741 
Q 2056 2741 1856 2470 
Q 1656 2200 1656 1722 
L 1656 0 
L 538 0 
L 538 4863 
L 1656 4863 
L 1656 2988 
Q 1909 3294 2193 3439 
Q 2478 3584 2822 3584 
Q 3428 3584 3742 3212 
Q 4056 2841 4056 2131 
z
" transform="scale(0.015625)"/>
      <path id="DejaVuSans-Bold-48" d="M 4031 1759 
L 4031 1441 
L 1416 1441 
Q 1456 1047 1700 850 
Q 1944 653 2381 653 
Q 2734 653 3104 758 
Q 3475 863 3866 1075 
L 3866 213 
Q 3469 63 3072 -14 
Q 2675 -91 2278 -91 
Q 1328 -91 801 392 
Q 275 875 275 1747 
Q 275 2603 792 3093 
Q 1309 3584 2216 3584 
Q 3041 3584 3536 3087 
Q 4031 2591 4031 1759 
z
M 2881 2131 
Q 2881 2450 2695 2645 
Q 2509 2841 2209 2841 
Q 1884 2841 1681 2658 
Q 1478 2475 1428 2131 
L 2881 2131 
z
" transform="scale(0.015625)"/>
      <path id="DejaVuSans-Bold-52" d="M 2203 2784 
Q 1831 2784 1636 2517 
Q 1441 2250 1441 1747 
Q 1441 1244 1636 976 
Q 1831 709 2203 709 
Q 2569 709 2762 976 
Q 2956 1244 2956 1747 
Q 2956 2250 2762 2517 
Q 2569 2784 2203 2784 
z
M 2203 3584 
Q 3106 3584 3614 3096 
Q 4122 2609 4122 1747 
Q 4122 884 3614 396 
Q 3106 -91 2203 -91 
Q 1297 -91 786 396 
Q 275 884 275 1747 
Q 275 2609 786 3096 
Q 1297 3584 2203 3584 
z
" transform="scale(0.015625)"/>
      <path id="DejaVuSans-Bold-51" d="M 4056 2131 
L 4056 0 
L 2931 0 
L 2931 347 
L 2931 1631 
Q 2931 2084 2911 2256 
Q 2891 2428 2841 2509 
Q 2775 2619 2662 2680 
Q 2550 2741 2406 2741 
Q 2056 2741 1856 2470 
Q 1656 2200 1656 1722 
L 1656 0 
L 538 0 
L 538 3500 
L 1656 3500 
L 1656 2988 
Q 1909 3294 2193 3439 
Q 2478 3584 2822 3584 
Q 3428 3584 3742 3212 
Q 4056 2841 4056 2131 
z
" transform="scale(0.015625)"/>
      <path id="DejaVuSans-Bold-4f" d="M 538 4863 
L 1656 4863 
L 1656 0 
L 538 0 
L 538 4863 
z
" transform="scale(0.015625)"/>
      <path id="DejaVuSans-Bold-5c" d="M 78 3500 
L 1197 3500 
L 2138 1125 
L 2938 3500 
L 4056 3500 
L 2584 -331 
Q 2363 -916 2067 -1148 
Q 1772 -1381 1288 -1381 
L 641 -1381 
L 641 -647 
L 991 -647 
Q 1275 -647 1404 -556 
Q 1534 -466 1606 -231 
L 1638 -134 
L 78 3500 
z
" transform="scale(0.015625)"/>
      <path id="DejaVuSans-Bold-46" d="M 3366 3391 
L 3366 2478 
Q 3138 2634 2908 2709 
Q 2678 2784 2431 2784 
Q 1963 2784 1702 2511 
Q 1441 2238 1441 1747 
Q 1441 1256 1702 982 
Q 1963 709 2431 709 
Q 2694 709 2930 787 
Q 3166 866 3366 1019 
L 3366 103 
Q 3103 6 2833 -42 
Q 2563 -91 2291 -91 
Q 1344 -91 809 395 
Q 275 881 275 1747 
Q 275 2613 809 3098 
Q 1344 3584 2291 3584 
Q 2566 3584 2833 3536 
Q 3100 3488 3366 3391 
z
" transform="scale(0.015625)"/>
      <path id="DejaVuSans-Bold-47" d="M 2919 2988 
L 2919 4863 
L 4044 4863 
L 4044 0 
L 2919 0 
L 2919 506 
Q 2688 197 2409 53 
Q 2131 -91 1766 -91 
Q 1119 -91 703 423 
Q 288 938 288 1747 
Q 288 2556 703 3070 
Q 1119 3584 1766 3584 
Q 2128 3584 2408 3439 
Q 2688 3294 2919 2988 
z
M 2181 722 
Q 2541 722 2730 984 
Q 2919 1247 2919 1747 
Q 2919 2247 2730 2509 
Q 2541 2772 2181 2772 
Q 1825 2772 1636 2509 
Q 1447 2247 1447 1747 
Q 1447 1247 1636 984 
Q 1825 722 2181 722 
z
" transform="scale(0.015625)"/>
      <path id="DejaVuSans-Bold-55" d="M 3138 2547 
Q 2991 2616 2845 2648 
Q 2700 2681 2553 2681 
Q 2122 2681 1889 2404 
Q 1656 2128 1656 1613 
L 1656 0 
L 538 0 
L 538 3500 
L 1656 3500 
L 1656 2925 
Q 1872 3269 2151 3426 
Q 2431 3584 2822 3584 
Q 2878 3584 2943 3579 
Q 3009 3575 3134 3559 
L 3138 2547 
z
" transform="scale(0.015625)"/>
     </defs>
     <use xlink:href="#DejaVuSans-Bold-57"/>
     <use xlink:href="#DejaVuSans-Bold-4b" transform="translate(47.796875 0)"/>
     <use xlink:href="#DejaVuSans-Bold-48" transform="translate(118.984375 0)"/>
     <use xlink:href="#DejaVuSans-Bold-3" transform="translate(186.8125 0)"/>
     <use xlink:href="#DejaVuSans-Bold-52" transform="translate(221.625 0)"/>
     <use xlink:href="#DejaVuSans-Bold-51" transform="translate(290.328125 0)"/>
     <use xlink:href="#DejaVuSans-Bold-4f" transform="translate(361.515625 0)"/>
     <use xlink:href="#DejaVuSans-Bold-5c" transform="translate(395.796875 0)"/>
     <use xlink:href="#DejaVuSans-Bold-3" transform="translate(460.984375 0)"/>
     <use xlink:href="#DejaVuSans-Bold-46" transform="translate(495.796875 0)"/>
     <use xlink:href="#DejaVuSans-Bold-52" transform="translate(555.078125 0)"/>
     <use xlink:href="#DejaVuSans-Bold-51" transform="translate(623.78125 0)"/>
     <use xlink:href="#DejaVuSans-Bold-57" transform="translate(694.96875 0)"/>
     <use xlink:href="#DejaVuSans-Bold-48" transform="translate(742.765625 0)"/>
     <use xlink:href="#DejaVuSans-Bold-51" transform="translate(810.59375 0)"/>
     <use xlink:href="#DejaVuSans-Bold-47" transform="translate(881.78125 0)"/>
     <use xlink:href="#DejaVuSans-Bold-48" transform="translate(953.359375 0)"/>
     <use xlink:href="#DejaVuSans-Bold-55" transform="translate(1021.1875 0)"/>
    </g>
   </g>
  </g>
 </g>
 <defs>
  <clipPath id="pc8ee530833">
   <rect x="58.966953" y="7.2" width="613.8" height="285.768"/>
  </clipPath>
 </defs>
</svg>
